<svg width="34" height="34" viewBox="0 0 34 34" fill="none" xmlns="http://www.w3.org/2000/svg">
<path d="M16.9998 33.6666C7.8165 33.6666 0.333171 26.1999 0.333171 16.9999C0.333171 7.81659 7.8165 0.333252 16.9998 0.333252C26.1998 0.333252 33.6665 7.81659 33.6665 16.9999C33.6665 26.044 26.4508 33.413 17.4661 33.6602L16.9998 33.6666Z" fill="#230B34"/>
<path d="M20.2833 12.1001C20.7833 11.6168 20.7833 10.8335 20.3 10.3335C20.05 10.0835 19.7333 9.9668 19.4 9.9668C19.0833 9.9668 18.7666 10.0835 18.5333 10.3335L12.7166 16.1168C12.4833 16.3501 12.35 16.6668 12.35 17.0001C12.35 17.3335 12.4833 17.6501 12.7166 17.8835L18.5333 23.6668C19.0166 24.1668 19.8 24.1668 20.3 23.6668C20.7833 23.1835 20.7833 22.3835 20.2833 21.9001L15.3666 17.0001L20.2833 12.1001Z" fill="white"/>
</svg>
