<svg width="34" height="34" viewBox="0 0 34 34" fill="none" xmlns="http://www.w3.org/2000/svg">
<path d="M16.6667 33.3333C25.85 33.3333 33.3333 25.8667 33.3333 16.6667C33.3333 7.48333 25.85 0 16.6667 0C7.46667 0 0 7.48333 0 16.6667C0 25.7107 7.2157 33.0797 16.2004 33.3269L16.6667 33.3333Z" fill="#230B34"/>
<path d="M13.3832 11.7669C12.8832 11.2835 12.8832 10.5002 13.3665 10.0002C13.6165 9.75021 13.9332 9.63354 14.2665 9.63354C14.5832 9.63354 14.8999 9.75021 15.1332 10.0002L20.9499 15.7835C21.1832 16.0169 21.3165 16.3335 21.3165 16.6669C21.3165 17.0002 21.1832 17.3169 20.9499 17.5502L15.1332 23.3335C14.6499 23.8335 13.8665 23.8335 13.3665 23.3335C12.8832 22.8502 12.8832 22.0502 13.3832 21.5669L18.2999 16.6669L13.3832 11.7669Z" fill="white"/>
</svg>
